<svg width="36" height="24" viewBox="0 0 36 24" fill="none" xmlns="http://www.w3.org/2000/svg">
<path d="M12.9118 0H6.08824C5.81209 0 5.58824 0.223857 5.58824 0.5V12.5909C5.58824 12.8671 5.36438 13.0909 5.08824 13.0909H1.09843C0.669409 13.0909 0.439616 13.5957 0.721365 13.9193L9.12293 23.567C9.32223 23.7959 9.67777 23.7959 9.87707 23.567L18.2786 13.9193C18.5604 13.5957 18.3306 13.0909 17.9016 13.0909H13.9118C13.6356 13.0909 13.4118 12.8671 13.4118 12.5909V0.5C13.4118 0.223858 13.1879 0 12.9118 0Z" fill="#E7E759"/>
<path d="M30.2059 24H23.7941C23.518 24 23.2941 23.7761 23.2941 23.5V11.4091C23.2941 11.1329 23.0703 10.9091 22.7941 10.9091H19.0607C18.6379 10.9091 18.406 10.417 18.675 10.0909L26.6143 0.467499C26.8143 0.225086 27.1857 0.225088 27.3857 0.467499L35.325 10.0909C35.594 10.417 35.3621 10.9091 34.9393 10.9091H31.2059C30.9297 10.9091 30.7059 11.1329 30.7059 11.4091V23.5C30.7059 23.7761 30.482 24 30.2059 24Z" fill="#E7E759"/>
</svg>
