<svg xmlns="http://www.w3.org/2000/svg" viewBox="0 0 288 24" role="img" aria-labelledby="title desc" style="max-height: 100%;"><title id="title">Я так соскучился</title><desc id="desc">Cхема гитарного боя: Я так соскучился</desc><g fill="none" stroke="#90caf9" transform="translate(0 0) "><path d="m15.11,1l-6.16,0a0.38,0.37 0 0 0 -0.38,0.37l0,11.73a0.38,0.37 0 0 1 -0.38,0.37l-3.74,0a0.38,0.37 0 0 0 -0.29,0.6l7.59,8.71a0.38,0.37 0 0 0 0.58,0l7.59,-8.71a0.38,0.37 0 0 0 -0.29,-0.6l-3.74,0a0.38,0.37 0 0 1 -0.38,-0.37l0,-11.73a0.38,0.37 0 0 0 -0.38,-0.37z" stroke-linecap="round" stroke-linejoin="round"></path></g><g fill="none" stroke="rgba(255, 255, 255, 0.3)" transform="translate(24 0) rotate(180 12 12)"><path d="m15.11,1l-6.16,0a0.38,0.37 0 0 0 -0.38,0.37l0,11.73a0.38,0.37 0 0 1 -0.38,0.37l-3.74,0a0.38,0.37 0 0 0 -0.29,0.6l7.59,8.71a0.38,0.37 0 0 0 0.58,0l7.59,-8.71a0.38,0.37 0 0 0 -0.29,-0.6l-3.74,0a0.38,0.37 0 0 1 -0.38,-0.37l0,-11.73a0.38,0.37 0 0 0 -0.38,-0.37z" stroke-linecap="round" stroke-linejoin="round"></path></g><g fill="none" stroke="rgba(255, 255, 255, 0.3)" transform="translate(48 0) "><path d="m15.11,1l-6.16,0a0.38,0.37 0 0 0 -0.38,0.37l0,11.73a0.38,0.37 0 0 1 -0.38,0.37l-3.74,0a0.38,0.37 0 0 0 -0.29,0.6l7.59,8.71a0.38,0.37 0 0 0 0.58,0l7.59,-8.71a0.38,0.37 0 0 0 -0.29,-0.6l-3.74,0a0.38,0.37 0 0 1 -0.38,-0.37l0,-11.73a0.38,0.37 0 0 0 -0.38,-0.37z" stroke-linecap="round" stroke-linejoin="round"></path></g><g fill="none" stroke="#90caf9" transform="translate(72 0) rotate(180 12 12)"><path d="m15.11,1l-6.16,0a0.38,0.37 0 0 0 -0.38,0.37l0,11.73a0.38,0.37 0 0 1 -0.38,0.37l-3.74,0a0.38,0.37 0 0 0 -0.29,0.6l7.59,8.71a0.38,0.37 0 0 0 0.58,0l7.59,-8.71a0.38,0.37 0 0 0 -0.29,-0.6l-3.74,0a0.38,0.37 0 0 1 -0.38,-0.37l0,-11.73a0.38,0.37 0 0 0 -0.38,-0.37z" stroke-linecap="round" stroke-linejoin="round"></path></g><g fill="none" stroke="#90caf9" transform="translate(96 0) "><path d="m15.11,1l-6.16,0a0.38,0.37 0 0 0 -0.38,0.37l0,11.73a0.38,0.37 0 0 1 -0.38,0.37l-3.74,0a0.38,0.37 0 0 0 -0.29,0.6l7.59,8.71a0.38,0.37 0 0 0 0.58,0l7.59,-8.71a0.38,0.37 0 0 0 -0.29,-0.6l-3.74,0a0.38,0.37 0 0 1 -0.38,-0.37l0,-11.73a0.38,0.37 0 0 0 -0.38,-0.37z" stroke-linecap="round" stroke-linejoin="round"></path></g><g fill="none" stroke="rgba(255, 255, 255, 0.3)" transform="translate(120 0) rotate(180 12 12)"><path d="m15.11,1l-6.16,0a0.38,0.37 0 0 0 -0.38,0.37l0,11.73a0.38,0.37 0 0 1 -0.38,0.37l-3.74,0a0.38,0.37 0 0 0 -0.29,0.6l7.59,8.71a0.38,0.37 0 0 0 0.58,0l7.59,-8.71a0.38,0.37 0 0 0 -0.29,-0.6l-3.74,0a0.38,0.37 0 0 1 -0.38,-0.37l0,-11.73a0.38,0.37 0 0 0 -0.38,-0.37z" stroke-linecap="round" stroke-linejoin="round"></path></g><g fill="none" stroke="#90caf9" transform="translate(144 0) translate(0 11)"><path d="m8.42,1l-3.52,0a0.36,0.41 0 0 0 -0.27,0.68l7.13,9.73a0.36,0.41 0 0 0 0.55,0l7.13,-9.73a0.36,0.41 0 0 0 -0.27,-0.68l-3.52,0l-7.23,0z"></path></g><g fill="none" stroke="rgba(255, 255, 255, 0.3)" transform="translate(168 0) rotate(180 12 12)"><path d="m15.11,1l-6.16,0a0.38,0.37 0 0 0 -0.38,0.37l0,11.73a0.38,0.37 0 0 1 -0.38,0.37l-3.74,0a0.38,0.37 0 0 0 -0.29,0.6l7.59,8.71a0.38,0.37 0 0 0 0.58,0l7.59,-8.71a0.38,0.37 0 0 0 -0.29,-0.6l-3.74,0a0.38,0.37 0 0 1 -0.38,-0.37l0,-11.73a0.38,0.37 0 0 0 -0.38,-0.37z" stroke-linecap="round" stroke-linejoin="round"></path></g><g fill="none" stroke="rgba(255, 255, 255, 0.3)" transform="translate(192 0) "><path d="m15.11,1l-6.16,0a0.38,0.37 0 0 0 -0.38,0.37l0,11.73a0.38,0.37 0 0 1 -0.38,0.37l-3.74,0a0.38,0.37 0 0 0 -0.29,0.6l7.59,8.71a0.38,0.37 0 0 0 0.58,0l7.59,-8.71a0.38,0.37 0 0 0 -0.29,-0.6l-3.74,0a0.38,0.37 0 0 1 -0.38,-0.37l0,-11.73a0.38,0.37 0 0 0 -0.38,-0.37z" stroke-linecap="round" stroke-linejoin="round"></path></g><g fill="none" stroke="#90caf9" transform="translate(216 0) rotate(180 12 12)"><path d="m15.11,1l-6.16,0a0.38,0.37 0 0 0 -0.38,0.37l0,11.73a0.38,0.37 0 0 1 -0.38,0.37l-3.74,0a0.38,0.37 0 0 0 -0.29,0.6l7.59,8.71a0.38,0.37 0 0 0 0.58,0l7.59,-8.71a0.38,0.37 0 0 0 -0.29,-0.6l-3.74,0a0.38,0.37 0 0 1 -0.38,-0.37l0,-11.73a0.38,0.37 0 0 0 -0.38,-0.37z" stroke-linecap="round" stroke-linejoin="round"></path></g><g fill="none" stroke="#90caf9" transform="translate(240 0) "><path d="m15.11,1l-6.16,0a0.38,0.37 0 0 0 -0.38,0.37l0,11.73a0.38,0.37 0 0 1 -0.38,0.37l-3.74,0a0.38,0.37 0 0 0 -0.29,0.6l7.59,8.71a0.38,0.37 0 0 0 0.58,0l7.59,-8.71a0.38,0.37 0 0 0 -0.29,-0.6l-3.74,0a0.38,0.37 0 0 1 -0.38,-0.37l0,-11.73a0.38,0.37 0 0 0 -0.38,-0.37z" stroke-linecap="round" stroke-linejoin="round"></path></g><g fill="none" stroke="rgba(255, 255, 255, 0.3)" transform="translate(264 0) rotate(180 12 12)"><path d="m15.11,1l-6.16,0a0.38,0.37 0 0 0 -0.38,0.37l0,11.73a0.38,0.37 0 0 1 -0.38,0.37l-3.74,0a0.38,0.37 0 0 0 -0.29,0.6l7.59,8.71a0.38,0.37 0 0 0 0.58,0l7.59,-8.71a0.38,0.37 0 0 0 -0.29,-0.6l-3.74,0a0.38,0.37 0 0 1 -0.38,-0.37l0,-11.73a0.38,0.37 0 0 0 -0.38,-0.37z" stroke-linecap="round" stroke-linejoin="round"></path></g></svg>