<svg xmlns="http://www.w3.org/2000/svg" viewBox="0 0 192 24" role="img" aria-labelledby="title desc" style="max-height: 100%;"><title id="title">Шестерка с заглушкой</title><desc id="desc">Cхема гитарного боя: Шестерка с заглушкой</desc><g fill="none" stroke="#90caf9" transform="translate(0 0) "><path d="m15.11,1l-6.16,0a0.38,0.37 0 0 0 -0.38,0.37l0,11.73a0.38,0.37 0 0 1 -0.38,0.37l-3.74,0a0.38,0.37 0 0 0 -0.29,0.6l7.59,8.71a0.38,0.37 0 0 0 0.58,0l7.59,-8.71a0.38,0.37 0 0 0 -0.29,-0.6l-3.74,0a0.38,0.37 0 0 1 -0.38,-0.37l0,-11.73a0.38,0.37 0 0 0 -0.38,-0.37z" stroke-linecap="round" stroke-linejoin="round"></path></g><g fill="none" stroke="rgba(255, 255, 255, 0.3)" transform="translate(24 0) rotate(180 12 12)"><path d="m15.11,1l-6.16,0a0.38,0.37 0 0 0 -0.38,0.37l0,11.73a0.38,0.37 0 0 1 -0.38,0.37l-3.74,0a0.38,0.37 0 0 0 -0.29,0.6l7.59,8.71a0.38,0.37 0 0 0 0.58,0l7.59,-8.71a0.38,0.37 0 0 0 -0.29,-0.6l-3.74,0a0.38,0.37 0 0 1 -0.38,-0.37l0,-11.73a0.38,0.37 0 0 0 -0.38,-0.37z" stroke-linecap="round" stroke-linejoin="round"></path></g><g fill="none" stroke="#90caf9" transform="translate(48 0) "><path d="m8.01,4.99a2.33,2.24 0 0 0 -3.25,3.22l3.86,3.63l-3.86,3.63a2.33,2.24 0 1 0 3.25,3.22l3.95,-3.71l3.95,3.71a2.33,2.24 0 1 0 3.25,-3.22l-3.86,-3.63l3.86,-3.63a2.33,2.24 0 0 0 -3.25,-3.22l-3.95,3.71l-3.95,-3.71z"></path></g><g fill="none" stroke="#90caf9" transform="translate(72 0) rotate(180 12 12)"><path d="m15.11,1l-6.16,0a0.38,0.37 0 0 0 -0.38,0.37l0,11.73a0.38,0.37 0 0 1 -0.38,0.37l-3.74,0a0.38,0.37 0 0 0 -0.29,0.6l7.59,8.71a0.38,0.37 0 0 0 0.58,0l7.59,-8.71a0.38,0.37 0 0 0 -0.29,-0.6l-3.74,0a0.38,0.37 0 0 1 -0.38,-0.37l0,-11.73a0.38,0.37 0 0 0 -0.38,-0.37z" stroke-linecap="round" stroke-linejoin="round"></path></g><g fill="none" stroke="rgba(255, 255, 255, 0.3)" transform="translate(96 0) "><path d="m15.11,1l-6.16,0a0.38,0.37 0 0 0 -0.38,0.37l0,11.73a0.38,0.37 0 0 1 -0.38,0.37l-3.74,0a0.38,0.37 0 0 0 -0.29,0.6l7.59,8.71a0.38,0.37 0 0 0 0.58,0l7.59,-8.71a0.38,0.37 0 0 0 -0.29,-0.6l-3.74,0a0.38,0.37 0 0 1 -0.38,-0.37l0,-11.73a0.38,0.37 0 0 0 -0.38,-0.37z" stroke-linecap="round" stroke-linejoin="round"></path></g><g fill="none" stroke="#90caf9" transform="translate(120 0) rotate(180 12 12)"><path d="m15.11,1l-6.16,0a0.38,0.37 0 0 0 -0.38,0.37l0,11.73a0.38,0.37 0 0 1 -0.38,0.37l-3.74,0a0.38,0.37 0 0 0 -0.29,0.6l7.59,8.71a0.38,0.37 0 0 0 0.58,0l7.59,-8.71a0.38,0.37 0 0 0 -0.29,-0.6l-3.74,0a0.38,0.37 0 0 1 -0.38,-0.37l0,-11.73a0.38,0.37 0 0 0 -0.38,-0.37z" stroke-linecap="round" stroke-linejoin="round"></path></g><g fill="none" stroke="#90caf9" transform="translate(144 0) "><path d="m8.01,4.99a2.33,2.24 0 0 0 -3.25,3.22l3.86,3.63l-3.86,3.63a2.33,2.24 0 1 0 3.25,3.22l3.95,-3.71l3.95,3.71a2.33,2.24 0 1 0 3.25,-3.22l-3.86,-3.63l3.86,-3.63a2.33,2.24 0 0 0 -3.25,-3.22l-3.95,3.71l-3.95,-3.71z"></path></g><g fill="none" stroke="#90caf9" transform="translate(168 0) rotate(180 12 12)"><path d="m15.11,1l-6.16,0a0.38,0.37 0 0 0 -0.38,0.37l0,11.73a0.38,0.37 0 0 1 -0.38,0.37l-3.74,0a0.38,0.37 0 0 0 -0.29,0.6l7.59,8.71a0.38,0.37 0 0 0 0.58,0l7.59,-8.71a0.38,0.37 0 0 0 -0.29,-0.6l-3.74,0a0.38,0.37 0 0 1 -0.38,-0.37l0,-11.73a0.38,0.37 0 0 0 -0.38,-0.37z" stroke-linecap="round" stroke-linejoin="round"></path></g></svg>